<svg width="28" height="28" viewBox="0 0 28 28" fill="none" xmlns="http://www.w3.org/2000/svg">
<path d="M3.11111 0C1.38444 0 0 1.38444 0 3.11111V24.8889C0 25.714 0.327777 26.5053 0.911223 27.0888C1.49467 27.6722 2.28599 28 3.11111 28H24.8889C25.714 28 26.5053 27.6722 27.0888 27.0888C27.6722 26.5053 28 25.714 28 24.8889V14H24.8889V24.8889H3.11111V3.11111H14V0H3.11111ZM22.9911 1.55556C22.7267 1.55556 22.4467 1.66444 22.2444 1.86667L20.3467 3.74889L24.2356 7.63778L26.1333 5.75556C26.5378 5.35111 26.5378 4.66667 26.1333 4.27778L23.7222 1.86667C23.52 1.66444 23.2556 1.55556 22.9911 1.55556ZM19.2422 4.85333L7.77778 16.3333V20.2222H11.6667L23.1311 8.74222L19.2422 4.85333Z" fill="#54534A"/>
</svg>
