<svg width="28" height="28" viewBox="0 0 28 28" fill="none" xmlns="http://www.w3.org/2000/svg">
<path d="M24.8889 0H3.11111C1.38444 0 0 1.38444 0 3.11111V9.33333H3.11111V3.11111H24.8889V24.8889H3.11111V18.6667H0V24.8889C0 25.714 0.327777 26.5053 0.911223 27.0888C1.49467 27.6722 2.28599 28 3.11111 28H24.8889C25.714 28 26.5053 27.6722 27.0888 27.0888C27.6722 26.5053 28 25.714 28 24.8889V3.11111C28 1.38444 26.6 0 24.8889 0ZM11.0133 19.5689L13.2222 21.7778L21 14L13.2222 6.22222L11.0133 8.41556L15.0422 12.4444H0V15.5556H15.0422L11.0133 19.5689Z" fill="#54534A"/>
</svg>
