<svg width="48" height="48" viewBox="0 0 48 48" fill="none" xmlns="http://www.w3.org/2000/svg">
<rect width="48" height="48" rx="6" fill="#234338"/>
<path d="M24.8998 17.6998C24.8998 17.2027 24.4969 16.7998 23.9998 16.7998C23.5027 16.7998 23.0998 17.2027 23.0998 17.6998V23.0998H17.6998C17.2027 23.0998 16.7998 23.5027 16.7998 23.9998C16.7998 24.4969 17.2027 24.8998 17.6998 24.8998L23.0998 24.8998V30.2998C23.0998 30.7969 23.5027 31.1998 23.9998 31.1998C24.4969 31.1998 24.8998 30.7969 24.8998 30.2998V24.8998L30.2998 24.8998C30.7969 24.8998 31.1998 24.4969 31.1998 23.9998C31.1998 23.5027 30.7969 23.0998 30.2998 23.0998H24.8998V17.6998Z" fill="white"/>
</svg>
