<svg width="49" height="48" viewBox="0 0 49 48" fill="none" xmlns="http://www.w3.org/2000/svg">
<path d="M24.5 47.8387C19.6544 47.8387 14.9176 46.4451 10.8885 43.8343C6.85954 41.2234 3.71931 37.5125 1.86496 33.1707C0.0106133 28.829 -0.474567 24.0515 0.470775 19.4423C1.41612 14.8332 3.74952 10.5994 7.17591 7.27641C11.7706 2.82038 18.0022 0.317017 24.5 0.317017C30.9978 0.317017 37.2295 2.82038 41.8241 7.27641C46.4188 11.7324 49 17.7761 49 24.0779C49 30.3796 46.4188 36.4233 41.8241 40.8793C39.5544 43.0926 36.8545 44.8474 33.8808 46.0419C30.9072 47.2365 27.7187 47.8472 24.5 47.8387ZM24.5 3.48518C12.792 3.48518 3.26674 12.7231 3.26674 24.0779C3.26674 35.4327 12.792 44.6706 24.5 44.6706C36.208 44.6706 45.7333 35.4327 45.7333 24.0779C45.7333 12.7231 36.208 3.48518 24.5 3.48518Z" fill="#BAAE9D"/>
<path d="M21.5715 36.2863L19.2617 34.0463L29.54 24.0779L19.2617 14.1096L21.5715 11.8695L34.1597 24.0779L21.5715 36.2863Z" fill="#BAAE9D"/>
</svg>
