<svg width="28" height="28" viewBox="0 0 28 28" fill="none" xmlns="http://www.w3.org/2000/svg">
<path d="M19.7956 16.4081C19.458 16.2381 17.7972 15.4189 17.4881 15.3048C17.1777 15.1919 16.9527 15.136 16.7265 15.476C16.5026 15.8148 15.8546 16.578 15.658 16.8039C15.4613 17.031 15.2636 17.0584 14.926 16.8895C14.5884 16.7184 13.4994 16.3613 12.2093 15.2067C11.2055 14.3077 10.5269 13.1976 10.3303 12.8577C10.1336 12.5188 10.3098 12.3351 10.4781 12.1663C10.6304 12.0146 10.8168 11.7704 10.985 11.573C11.1544 11.3745 11.2101 11.2331 11.3238 11.006C11.4363 10.7801 11.3806 10.5828 11.2953 10.4128C11.2101 10.2428 10.5349 8.57369 10.2541 7.89488C9.97905 7.23431 9.70056 7.32444 9.49369 7.31303C9.27782 7.3044 9.0618 7.3006 8.84577 7.30162C8.6207 7.30162 8.25469 7.38605 7.9455 7.72603C7.63632 8.06486 6.76334 8.88515 6.76334 10.5542C6.76334 12.2222 7.97392 13.8343 8.14215 14.0613C8.31152 14.2872 10.5247 17.7121 13.9132 19.1804C14.7191 19.5295 15.3477 19.7383 15.8387 19.8934C16.648 20.1524 17.3846 20.1159 17.9655 20.028C18.6145 19.9311 19.9638 19.2078 20.2457 18.416C20.5276 17.6242 20.5276 16.9454 20.4423 16.8039C20.3582 16.6625 20.1343 16.578 19.7956 16.4081ZM13.6324 24.8539H13.6278C11.6156 24.8541 9.64041 24.3111 7.90913 23.2818L7.49878 23.0377L3.2464 24.158L4.38083 19.9961L4.1137 19.5694C2.98887 17.7717 2.39381 15.6912 2.39729 13.5684C2.39843 7.35068 7.43967 2.29206 13.6369 2.29206C16.6378 2.29206 19.4591 3.46715 21.5802 5.5983C22.6267 6.64404 23.4562 7.88772 24.0207 9.25735C24.5851 10.627 24.8733 12.0954 24.8686 13.5776C24.8652 19.7953 19.8251 24.8539 13.6324 24.8539ZM23.1954 3.97941C21.943 2.71409 20.4528 1.71083 18.8113 1.02774C17.1697 0.344663 15.4094 -0.00465047 13.6324 4.67501e-05C6.18135 4.67501e-05 0.11708 6.08659 0.11367 13.5673C0.11367 15.9586 0.735442 18.2928 1.91874 20.3498L0 27.381L7.16687 25.494C9.1488 26.5777 11.3697 27.1456 13.6267 27.1459H13.6324C21.0823 27.1459 27.1477 21.0594 27.1511 13.5776C27.1566 11.7947 26.8098 10.0284 26.1309 8.38092C25.4519 6.73343 24.4542 5.23741 23.1954 3.97941Z" fill="white"/>
</svg>
