<svg width="29" height="29" viewBox="0 0 29 29" fill="none" xmlns="http://www.w3.org/2000/svg">
<path d="M14.1577 0C6.40533 0 0.125 6.28123 0.125 14.0327C0.125 21.7842 6.40623 28.0655 14.1577 28.0655C21.9101 28.0655 28.1905 21.7842 28.1905 14.0327C28.1905 6.28123 21.9092 0 14.1577 0ZM21.0501 9.61378L18.7469 20.467C18.5767 21.2365 18.1186 21.423 17.4794 21.0609L13.9712 18.4752L12.2792 20.1048C12.0927 20.2913 11.9342 20.4498 11.5721 20.4498L11.8211 16.8791L18.3223 11.0053C18.6057 10.7563 18.2598 10.6151 17.8859 10.8641L9.85105 15.9222L6.38813 14.8412C5.63579 14.604 5.61859 14.0889 6.54656 13.7267L20.0759 8.50927C20.7042 8.28294 21.2529 8.66227 21.0492 9.61288L21.0501 9.61378Z" fill="white"/>
</svg>
