<svg width="28" height="28" viewBox="0 0 28 28" fill="none" xmlns="http://www.w3.org/2000/svg">
<path d="M18.5126 0H10.1066C2.43541 0 0.619141 1.82294 0.619141 9.52235V17.9592C0.619141 25.6586 2.43541 27.4815 10.1066 27.4815H18.5126C26.1838 27.4815 28.0001 25.6586 28.0001 17.9592V9.52235C28.0001 1.82294 26.1644 0 18.5126 0ZM22.7247 19.6069H20.735C19.982 19.6069 19.7493 19.0058 18.3962 17.6294C17.2177 16.4843 16.6963 16.3298 16.4065 16.3298C16.0004 16.3298 15.884 16.4465 15.884 17.0088V18.8122C15.884 19.2978 15.73 19.5886 14.4545 19.5886C12.3485 19.5886 10.0097 18.3084 8.36795 15.9221C5.89454 12.432 5.21686 9.81319 5.21686 9.27043C5.21686 8.97959 5.33323 8.70821 5.8934 8.70821H7.88308C8.38506 8.70821 8.57901 8.94066 8.77296 9.48342C9.75753 12.3346 11.4004 14.8366 12.0769 14.8366C12.3279 14.8366 12.4443 14.7198 12.4443 14.0808V11.1312C12.3667 9.77312 11.6514 9.65747 11.6514 9.1731C11.6514 8.93951 11.8453 8.70706 12.1534 8.70706H15.2839C15.7095 8.70706 15.8635 8.93951 15.8635 9.44334V13.4201C15.8635 13.8461 16.0574 14.0018 16.1727 14.0018C16.4237 14.0018 16.637 13.8461 17.1002 13.3812C18.5308 11.7713 19.5542 9.28876 19.5542 9.28876C19.69 8.99791 19.9216 8.72653 20.4247 8.72653H22.4144C23.0133 8.72653 23.1491 9.0357 23.0133 9.4628C22.7623 10.6273 20.3277 14.0786 20.3277 14.0786C20.1155 14.4278 20.0379 14.5824 20.3277 14.9717C20.5399 15.2626 21.2359 15.8637 21.7002 16.4065C22.5501 17.3763 23.2061 18.1905 23.3807 18.7539C23.5746 19.3149 23.2837 19.6058 22.7236 19.6058L22.7247 19.6069Z" fill="white"/>
</svg>
