<svg width="111" height="40" viewBox="0 0 111 40" fill="none" xmlns="http://www.w3.org/2000/svg">
<rect width="56" height="40" rx="4" fill="#121221"/>
<path d="M19.088 13.672V13.992C18.7467 14.0347 18.4907 14.1253 18.32 14.264C18.1493 14.392 18.032 14.6 17.968 14.888C17.9147 15.176 17.888 15.5813 17.888 16.104V25.032C17.76 25.0213 17.6267 25.016 17.488 25.016C17.36 25.016 17.2213 25.0213 17.072 25.032L10.128 16.232V22.376C10.128 22.9627 10.16 23.416 10.224 23.736C10.288 24.0453 10.4267 24.2693 10.64 24.408C10.864 24.536 11.2107 24.6267 11.68 24.68V25C11.4773 24.9787 11.2107 24.968 10.88 24.968C10.5493 24.9573 10.24 24.952 9.952 24.952C9.70667 24.952 9.456 24.9573 9.2 24.968C8.944 24.968 8.73067 24.9787 8.56 25V24.68C8.90133 24.6267 9.15733 24.536 9.328 24.408C9.49867 24.28 9.61067 24.072 9.664 23.784C9.728 23.4853 9.76 23.08 9.76 22.568V15.368C9.76 14.9733 9.728 14.6853 9.664 14.504C9.61067 14.312 9.49333 14.184 9.312 14.12C9.14133 14.0453 8.89067 14.0027 8.56 13.992V13.672C8.73067 13.6827 8.944 13.6933 9.2 13.704C9.456 13.7147 9.70667 13.72 9.952 13.72C10.208 13.72 10.4533 13.7147 10.688 13.704C10.9227 13.6933 11.136 13.6827 11.328 13.672L17.52 21.304V16.296C17.52 15.7093 17.488 15.2613 17.424 14.952C17.36 14.632 17.216 14.4027 16.992 14.264C16.7787 14.1253 16.4373 14.0347 15.968 13.992V13.672C16.1707 13.6827 16.4373 13.6933 16.768 13.704C17.0987 13.7147 17.408 13.72 17.696 13.72C17.952 13.72 18.2027 13.7147 18.448 13.704C18.704 13.6933 18.9173 13.6827 19.088 13.672ZM23.7464 16.504C24.685 16.504 25.421 16.7813 25.9544 17.336C26.4877 17.8907 26.7544 18.7973 26.7544 20.056H21.4904L21.4584 19.752H24.7384C24.749 19.2293 24.717 18.7493 24.6424 18.312C24.5677 17.864 24.4504 17.5067 24.2904 17.24C24.1304 16.9733 23.917 16.84 23.6504 16.84C23.277 16.84 22.957 17.0747 22.6904 17.544C22.4344 18.0133 22.2797 18.792 22.2264 19.88L22.2744 19.976C22.2637 20.104 22.253 20.2373 22.2424 20.376C22.2424 20.5147 22.2424 20.6587 22.2424 20.808C22.2424 21.544 22.3437 22.1413 22.5464 22.6C22.7597 23.0587 23.0264 23.3947 23.3464 23.608C23.6664 23.8107 23.9917 23.912 24.3224 23.912C24.5464 23.912 24.7757 23.88 25.0104 23.816C25.2557 23.7413 25.501 23.6133 25.7464 23.432C25.9917 23.24 26.221 22.9733 26.4344 22.632L26.7224 22.728C26.5944 23.1333 26.3917 23.528 26.1144 23.912C25.837 24.296 25.485 24.6107 25.0584 24.856C24.6317 25.1013 24.1197 25.224 23.5224 25.224C22.797 25.224 22.157 25.0693 21.6024 24.76C21.0477 24.4507 20.6104 23.9813 20.2904 23.352C19.981 22.7227 19.8264 21.9227 19.8264 20.952C19.8264 19.96 19.9917 19.1333 20.3224 18.472C20.6637 17.8107 21.1277 17.32 21.7144 17C22.3117 16.6693 22.989 16.504 23.7464 16.504ZM31.3806 16.728V17.064C31.146 17.064 30.938 17.08 30.7566 17.112C30.586 17.1333 30.4686 17.208 30.4046 17.336C30.3513 17.464 30.3726 17.672 30.4686 17.96L31.9886 22.712L31.7806 22.936L33.6526 16.712L33.9726 16.856L31.5246 25.032C31.354 25.0213 31.1833 25.016 31.0126 25.016C30.842 25.016 30.666 25.0213 30.4846 25.032L27.9566 17.96C27.8073 17.5333 27.642 17.2773 27.4606 17.192C27.29 17.1067 27.146 17.064 27.0286 17.064V16.728C27.37 16.76 27.722 16.7867 28.0846 16.808C28.458 16.8187 28.8633 16.824 29.3006 16.824C29.6313 16.824 29.978 16.8133 30.3406 16.792C30.714 16.7707 31.0606 16.7493 31.3806 16.728ZM39.7326 16.728V17.048C39.53 17.1013 39.338 17.224 39.1566 17.416C38.9753 17.608 38.8046 17.944 38.6446 18.424L36.5166 25.032C36.346 25.0213 36.17 25.016 35.9886 25.016C35.818 25.016 35.6473 25.0213 35.4766 25.032L33.2206 18.872L33.6526 16.712C33.8446 16.7227 34.0366 16.728 34.2286 16.728C34.4313 16.7173 34.6286 16.712 34.8206 16.712L37.0126 23.176L36.8366 23L37.9086 19.608C38.09 19.0213 38.1593 18.5467 38.1166 18.184C38.074 17.8213 37.946 17.5493 37.7326 17.368C37.5193 17.1867 37.2313 17.08 36.8686 17.048V16.728C37.0393 16.7387 37.2206 16.7493 37.4126 16.76C37.6153 16.76 37.8126 16.7653 38.0046 16.776C38.2073 16.776 38.378 16.776 38.5166 16.776C38.73 16.776 38.9486 16.7707 39.1726 16.76C39.4073 16.7493 39.594 16.7387 39.7326 16.728ZM43.0989 16.504C43.5469 16.504 43.9362 16.5627 44.2669 16.68C44.6082 16.7867 44.8535 16.8933 45.0029 17C45.3655 17.2453 45.5895 17.0853 45.6749 16.52H46.0109C45.9895 16.8187 45.9735 17.1867 45.9629 17.624C45.9522 18.0507 45.9469 18.6213 45.9469 19.336H45.6109C45.5575 18.9413 45.4562 18.552 45.3069 18.168C45.1575 17.784 44.9389 17.4693 44.6509 17.224C44.3735 16.9787 44.0109 16.856 43.5629 16.856C43.2535 16.856 42.9922 16.9467 42.7789 17.128C42.5655 17.2987 42.4589 17.5493 42.4589 17.88C42.4589 18.2 42.5549 18.4827 42.7469 18.728C42.9389 18.9627 43.1842 19.192 43.4829 19.416C43.7922 19.6293 44.1122 19.8587 44.4429 20.104C44.7949 20.3707 45.1149 20.6373 45.4029 20.904C45.6909 21.16 45.9202 21.4427 46.0909 21.752C46.2615 22.0613 46.3469 22.4293 46.3469 22.856C46.3469 23.336 46.2082 23.7573 45.9309 24.12C45.6535 24.472 45.2855 24.744 44.8269 24.936C44.3789 25.128 43.8775 25.224 43.3229 25.224C43.0029 25.224 42.7149 25.192 42.4589 25.128C42.2135 25.064 42.0002 24.984 41.8189 24.888C41.6802 24.824 41.5469 24.7653 41.4189 24.712C41.3015 24.648 41.1895 24.5947 41.0829 24.552C40.9762 24.52 40.8802 24.5573 40.7949 24.664C40.7202 24.7707 40.6615 24.92 40.6189 25.112H40.2829C40.3042 24.7707 40.3202 24.3547 40.3309 23.864C40.3415 23.3733 40.3469 22.7227 40.3469 21.912H40.6829C40.7469 22.488 40.8642 23 41.0349 23.448C41.2055 23.8853 41.4349 24.232 41.7229 24.488C42.0215 24.7333 42.3949 24.856 42.8429 24.856C43.0242 24.856 43.2002 24.8187 43.3709 24.744C43.5415 24.6693 43.6802 24.5467 43.7869 24.376C43.9042 24.2053 43.9629 23.9867 43.9629 23.72C43.9629 23.2507 43.8082 22.8613 43.4989 22.552C43.2002 22.2427 42.8162 21.9067 42.3469 21.544C42.0055 21.2667 41.6802 20.9947 41.3709 20.728C41.0722 20.4507 40.8269 20.152 40.6349 19.832C40.4429 19.5013 40.3469 19.128 40.3469 18.712C40.3469 18.232 40.4749 17.8267 40.7309 17.496C40.9869 17.1653 41.3229 16.92 41.7389 16.76C42.1655 16.5893 42.6189 16.504 43.0989 16.504Z" fill="#F8F8F8"/>
<path d="M66.1534 13.672C66.42 13.6827 66.7774 13.6933 67.2254 13.704C67.684 13.7147 68.1374 13.72 68.5854 13.72C69.0974 13.72 69.5934 13.7147 70.0734 13.704C70.5534 13.6933 70.8947 13.688 71.0974 13.688C72.58 13.688 73.6894 13.9813 74.4254 14.568C75.1614 15.1547 75.5294 15.912 75.5294 16.84C75.5294 17.224 75.4547 17.6293 75.3054 18.056C75.156 18.472 74.9 18.8613 74.5374 19.224C74.1854 19.576 73.7 19.864 73.0814 20.088C72.4627 20.312 71.684 20.424 70.7454 20.424H69.1134V20.104H70.5854C71.2147 20.104 71.6894 19.96 72.0094 19.672C72.34 19.384 72.564 19.0053 72.6814 18.536C72.8094 18.0667 72.8734 17.56 72.8734 17.016C72.8734 16.0027 72.724 15.2453 72.4254 14.744C72.1267 14.2427 71.6147 13.992 70.8894 13.992C70.4734 13.992 70.2014 14.0827 70.0734 14.264C69.956 14.4453 69.8974 14.8133 69.8974 15.368V23.208C69.8974 23.624 69.94 23.9333 70.0254 24.136C70.1107 24.3387 70.276 24.472 70.5214 24.536C70.7667 24.6 71.1294 24.6373 71.6094 24.648V25C71.2787 24.9893 70.852 24.9787 70.3294 24.968C69.8067 24.9573 69.2574 24.952 68.6814 24.952C68.2227 24.952 67.7747 24.9573 67.3374 24.968C66.9 24.9787 66.5054 24.9893 66.1534 25V24.68C66.4947 24.6587 66.7507 24.616 66.9214 24.552C67.092 24.488 67.204 24.36 67.2574 24.168C67.3214 23.976 67.3534 23.688 67.3534 23.304V15.368C67.3534 14.9733 67.3214 14.6853 67.2574 14.504C67.204 14.312 67.0867 14.184 66.9054 14.12C66.7347 14.0453 66.484 14.0027 66.1534 13.992V13.672ZM80.1214 16.504C80.9 16.504 81.5827 16.648 82.1694 16.936C82.756 17.224 83.2147 17.688 83.5454 18.328C83.876 18.968 84.0414 19.816 84.0414 20.872C84.0414 21.928 83.876 22.776 83.5454 23.416C83.2147 24.0453 82.756 24.504 82.1694 24.792C81.5827 25.08 80.9 25.224 80.1214 25.224C79.364 25.224 78.6867 25.08 78.0894 24.792C77.5027 24.504 77.0387 24.0453 76.6974 23.416C76.3667 22.776 76.2014 21.928 76.2014 20.872C76.2014 19.816 76.3667 18.968 76.6974 18.328C77.0387 17.688 77.5027 17.224 78.0894 16.936C78.6867 16.648 79.364 16.504 80.1214 16.504ZM80.1214 16.824C79.6947 16.824 79.3374 17.144 79.0494 17.784C78.7614 18.4133 78.6174 19.4427 78.6174 20.872C78.6174 22.3013 78.7614 23.3307 79.0494 23.96C79.3374 24.5893 79.6947 24.904 80.1214 24.904C80.5587 24.904 80.916 24.5893 81.1934 23.96C81.4814 23.3307 81.6254 22.3013 81.6254 20.872C81.6254 19.4427 81.4814 18.4133 81.1934 17.784C80.916 17.144 80.5587 16.824 80.1214 16.824ZM90.5443 16.504C90.8856 16.504 91.1629 16.5787 91.3763 16.728C91.5896 16.8667 91.7443 17.048 91.8403 17.272C91.9469 17.496 92.0003 17.7307 92.0003 17.976C92.0003 18.3707 91.8829 18.696 91.6483 18.952C91.4243 19.1973 91.1256 19.32 90.7523 19.32C90.3789 19.32 90.0856 19.2293 89.8723 19.048C89.6696 18.856 89.5683 18.6053 89.5683 18.296C89.5683 17.9973 89.6323 17.752 89.7603 17.56C89.8989 17.3573 90.0696 17.1867 90.2723 17.048C90.1229 17.0053 89.9736 17.0107 89.8243 17.064C89.6216 17.096 89.4296 17.1813 89.2483 17.32C89.0669 17.448 88.9123 17.6133 88.7843 17.816C88.6563 18.008 88.5549 18.2213 88.4803 18.456C88.4056 18.68 88.3683 18.8987 88.3683 19.112V23.352C88.3683 23.864 88.4909 24.2107 88.7363 24.392C88.9923 24.5733 89.3709 24.664 89.8723 24.664V25C89.6269 24.9893 89.2696 24.9787 88.8003 24.968C88.3309 24.9467 87.8403 24.936 87.3283 24.936C86.9016 24.936 86.4696 24.9467 86.0323 24.968C85.5949 24.9787 85.2643 24.9893 85.0403 25V24.664C85.4136 24.664 85.6749 24.584 85.8243 24.424C85.9843 24.264 86.0643 23.96 86.0643 23.512V18.472C86.0643 17.992 85.9896 17.64 85.8403 17.416C85.7016 17.1813 85.4349 17.064 85.0403 17.064V16.728C85.3816 16.76 85.7123 16.776 86.0323 16.776C86.4803 16.776 86.8963 16.76 87.2803 16.728C87.6749 16.6853 88.0376 16.6267 88.3683 16.552V18.04C88.4963 17.752 88.6669 17.4907 88.8802 17.256C89.0936 17.0213 89.3389 16.84 89.6163 16.712C89.8936 16.5733 90.2029 16.504 90.5443 16.504ZM95.757 14.104V16.728H97.645V17.048H95.757V23.512C95.757 23.832 95.8157 24.0613 95.933 24.2C96.0503 24.328 96.2263 24.392 96.461 24.392C96.653 24.392 96.845 24.3227 97.037 24.184C97.229 24.0347 97.3997 23.784 97.549 23.432L97.821 23.576C97.6503 24.056 97.389 24.4507 97.037 24.76C96.6957 25.0693 96.2263 25.224 95.629 25.224C95.277 25.224 94.9677 25.176 94.701 25.08C94.4343 24.9947 94.2103 24.8613 94.029 24.68C93.7943 24.4453 93.6397 24.1573 93.565 23.816C93.4903 23.464 93.453 23.0107 93.453 22.456V17.048H92.109V16.728H93.453V14.616C93.901 14.616 94.3117 14.5787 94.685 14.504C95.069 14.4187 95.4263 14.2853 95.757 14.104ZM100.342 25.112C99.862 25.112 99.462 25.0213 99.142 24.84C98.822 24.6587 98.5873 24.4187 98.438 24.12C98.2887 23.8107 98.214 23.4747 98.214 23.112C98.214 22.6533 98.3153 22.28 98.518 21.992C98.7313 21.704 99.0033 21.4693 99.334 21.288C99.6647 21.1067 100.011 20.9573 100.374 20.84C100.747 20.7227 101.099 20.6107 101.43 20.504C101.771 20.3867 102.043 20.2533 102.246 20.104C102.459 19.944 102.566 19.7413 102.566 19.496V18.248C102.566 17.9707 102.518 17.7253 102.422 17.512C102.337 17.288 102.198 17.1173 102.006 17C101.825 16.8827 101.585 16.824 101.286 16.824C101.073 16.824 100.859 16.856 100.646 16.92C100.433 16.9733 100.257 17.0693 100.118 17.208C100.417 17.3147 100.646 17.48 100.806 17.704C100.977 17.9173 101.062 18.1627 101.062 18.44C101.062 18.8027 100.934 19.0907 100.678 19.304C100.433 19.5173 100.139 19.624 99.798 19.624C99.414 19.624 99.1207 19.5067 98.918 19.272C98.726 19.0267 98.63 18.7333 98.63 18.392C98.63 18.0827 98.7047 17.8267 98.854 17.624C99.014 17.4213 99.2327 17.2293 99.51 17.048C99.8087 16.8773 100.166 16.744 100.582 16.648C101.009 16.552 101.467 16.504 101.958 16.504C102.449 16.504 102.891 16.5573 103.286 16.664C103.681 16.76 104.011 16.9413 104.278 17.208C104.523 17.4533 104.683 17.7573 104.758 18.12C104.833 18.472 104.87 18.92 104.87 19.464V23.816C104.87 24.0827 104.897 24.2693 104.95 24.376C105.003 24.472 105.094 24.52 105.222 24.52C105.318 24.52 105.409 24.4933 105.494 24.44C105.59 24.3867 105.691 24.3227 105.798 24.248L105.958 24.52C105.734 24.712 105.473 24.8613 105.174 24.968C104.886 25.064 104.561 25.112 104.198 25.112C103.803 25.112 103.489 25.0587 103.254 24.952C103.019 24.8347 102.849 24.68 102.742 24.488C102.646 24.296 102.598 24.072 102.598 23.816C102.342 24.2213 102.033 24.5413 101.67 24.776C101.307 25 100.865 25.112 100.342 25.112ZM101.478 24.088C101.691 24.088 101.883 24.04 102.054 23.944C102.235 23.8373 102.406 23.6667 102.566 23.432V20.152C102.47 20.312 102.337 20.456 102.166 20.584C101.995 20.712 101.814 20.8453 101.622 20.984C101.43 21.112 101.243 21.256 101.062 21.416C100.891 21.576 100.753 21.7733 100.646 22.008C100.539 22.2427 100.486 22.5253 100.486 22.856C100.486 23.272 100.577 23.5813 100.758 23.784C100.939 23.9867 101.179 24.088 101.478 24.088ZM109.679 12.472V23.512C109.679 23.96 109.754 24.264 109.903 24.424C110.063 24.584 110.33 24.664 110.703 24.664V25C110.501 24.9893 110.197 24.9787 109.791 24.968C109.386 24.9467 108.975 24.936 108.559 24.936C108.143 24.936 107.722 24.9467 107.295 24.968C106.879 24.9787 106.565 24.9893 106.351 25V24.664C106.725 24.664 106.986 24.584 107.135 24.424C107.295 24.264 107.375 23.96 107.375 23.512V14.392C107.375 13.912 107.301 13.56 107.151 13.336C107.013 13.1013 106.746 12.984 106.351 12.984V12.648C106.693 12.68 107.023 12.696 107.343 12.696C107.781 12.696 108.197 12.68 108.591 12.648C108.986 12.6053 109.349 12.5467 109.679 12.472Z" fill="#121221"/>
</svg>
