<svg width="193" height="81" viewBox="0 0 193 81" fill="none" xmlns="http://www.w3.org/2000/svg">
<path d="M88.016 30C87.04 30 86.28 29.744 85.736 29.232C85.192 28.72 84.92 28 84.92 27.072V16.08C84.92 15.184 85.184 14.48 85.712 13.968C86.256 13.456 87.008 13.2 87.968 13.2H95.408C96.032 13.2 96.344 13.456 96.344 13.968C96.344 14.192 96.264 14.368 96.104 14.496C95.944 14.624 95.712 14.688 95.408 14.688H87.992C87.608 14.688 87.296 14.816 87.056 15.072C86.832 15.328 86.72 15.664 86.72 16.08V20.664H93.584C94.208 20.664 94.52 20.92 94.52 21.432C94.52 21.672 94.432 21.856 94.256 21.984C94.096 22.112 93.872 22.176 93.584 22.176H86.72V27.12C86.72 27.536 86.832 27.872 87.056 28.128C87.296 28.384 87.608 28.512 87.992 28.512H95.936C96.56 28.512 96.872 28.76 96.872 29.256C96.872 29.496 96.784 29.68 96.608 29.808C96.448 29.936 96.224 30 95.936 30H88.016ZM101.236 30.24C100.964 30.24 100.748 30.16 100.588 30C100.444 29.824 100.372 29.584 100.372 29.28V12.744C100.372 12.44 100.444 12.208 100.588 12.048C100.748 11.872 100.964 11.784 101.236 11.784C101.508 11.784 101.724 11.872 101.884 12.048C102.044 12.208 102.124 12.44 102.124 12.744V29.28C102.124 29.568 102.044 29.8 101.884 29.976C101.74 30.152 101.524 30.24 101.236 30.24ZM111.865 30.24C109.785 30.24 108.177 29.704 107.041 28.632C105.905 27.56 105.337 26.04 105.337 24.072C105.337 22.184 105.913 20.704 107.065 19.632C108.217 18.544 109.793 18 111.793 18C113.025 18 114.121 18.2 115.081 18.6C116.041 18.984 116.785 19.536 117.313 20.256C117.857 20.96 118.129 21.768 118.129 22.68C118.129 23.352 117.937 23.872 117.553 24.24C117.185 24.608 116.673 24.792 116.017 24.792H107.137C107.137 26.024 107.553 26.992 108.385 27.696C109.217 28.384 110.377 28.728 111.865 28.728C112.777 28.728 113.561 28.632 114.217 28.44C114.873 28.232 115.489 27.904 116.065 27.456C116.369 27.2 116.617 27.072 116.809 27.072C116.953 27.072 117.089 27.136 117.217 27.264C117.441 27.456 117.553 27.656 117.553 27.864C117.553 28.024 117.457 28.2 117.265 28.392C116.609 29.016 115.841 29.48 114.961 29.784C114.081 30.088 113.049 30.24 111.865 30.24ZM115.489 23.376C115.777 23.376 115.993 23.32 116.137 23.208C116.281 23.08 116.353 22.856 116.353 22.536C116.353 21.96 116.161 21.44 115.777 20.976C115.393 20.512 114.849 20.152 114.145 19.896C113.457 19.64 112.673 19.512 111.793 19.512C110.369 19.512 109.241 19.864 108.409 20.568C107.593 21.256 107.185 22.192 107.185 23.376H115.489ZM126.638 36.024C125.486 36.024 124.446 35.856 123.518 35.52C122.59 35.184 121.838 34.696 121.262 34.056C121.134 33.928 121.07 33.768 121.07 33.576C121.07 33.336 121.198 33.128 121.454 32.952C121.614 32.84 121.766 32.784 121.91 32.784C122.15 32.784 122.39 32.912 122.63 33.168C123.014 33.584 123.526 33.92 124.166 34.176C124.806 34.432 125.574 34.56 126.47 34.56C128.038 34.56 129.238 34.184 130.07 33.432C130.902 32.68 131.318 31.592 131.318 30.168V27.912C130.774 28.632 130.062 29.224 129.182 29.688C128.302 30.136 127.278 30.36 126.11 30.36C124.078 30.36 122.51 29.816 121.406 28.728C120.302 27.64 119.75 26.184 119.75 24.36C119.75 23.128 119.99 22.04 120.47 21.096C120.966 20.136 121.702 19.384 122.678 18.84C123.654 18.28 124.854 18 126.278 18C127.334 18 128.286 18.216 129.134 18.648C129.982 19.08 130.71 19.696 131.318 20.496V18.912C131.318 18.656 131.398 18.44 131.558 18.264C131.734 18.088 131.95 18 132.206 18C132.462 18 132.67 18.088 132.83 18.264C132.99 18.424 133.07 18.64 133.07 18.912V30.168C133.07 31.368 132.798 32.408 132.254 33.288C131.726 34.168 130.974 34.84 129.998 35.304C129.022 35.784 127.902 36.024 126.638 36.024ZM126.278 28.8C127.142 28.8 127.95 28.632 128.702 28.296C129.47 27.96 130.094 27.448 130.574 26.76C131.054 26.056 131.294 25.2 131.294 24.192C131.294 23.296 131.102 22.496 130.718 21.792C130.334 21.088 129.774 20.536 129.038 20.136C128.302 19.72 127.422 19.512 126.398 19.512C124.846 19.512 123.646 19.936 122.798 20.784C121.95 21.616 121.526 22.808 121.526 24.36C121.526 25.736 121.926 26.824 122.726 27.624C123.542 28.408 124.726 28.8 126.278 28.8ZM140.705 30.24C139.137 30.24 137.905 29.896 137.009 29.208C136.129 28.52 135.689 27.568 135.689 26.352C135.689 25.152 136.153 24.2 137.081 23.496C138.025 22.792 139.305 22.44 140.921 22.44C141.865 22.44 142.697 22.568 143.417 22.824C144.153 23.08 144.721 23.424 145.121 23.856V22.32C145.121 21.408 144.817 20.712 144.209 20.232C143.617 19.752 142.745 19.512 141.593 19.512C140.105 19.512 138.817 19.864 137.729 20.568C137.457 20.728 137.233 20.808 137.057 20.808C136.897 20.808 136.737 20.744 136.577 20.616C136.401 20.472 136.313 20.288 136.313 20.064C136.313 19.824 136.417 19.624 136.625 19.464C137.201 19.016 137.929 18.664 138.809 18.408C139.705 18.136 140.617 18 141.545 18C143.241 18 144.553 18.384 145.481 19.152C146.425 19.92 146.897 21 146.897 22.392V29.304C146.897 29.928 146.609 30.24 146.033 30.24C145.777 30.24 145.569 30.16 145.409 30C145.249 29.824 145.169 29.6 145.169 29.328V28.464C144.177 29.648 142.689 30.24 140.705 30.24ZM140.921 28.776C142.169 28.776 143.185 28.544 143.969 28.08C144.753 27.6 145.145 26.984 145.145 26.232C145.145 25.48 144.777 24.904 144.041 24.504C143.321 24.088 142.297 23.88 140.969 23.88C139.849 23.88 138.985 24.096 138.377 24.528C137.769 24.944 137.465 25.552 137.465 26.352C137.465 27.136 137.761 27.736 138.353 28.152C138.945 28.568 139.801 28.776 140.921 28.776ZM151.029 30.24C150.757 30.24 150.541 30.16 150.381 30C150.237 29.824 150.165 29.584 150.165 29.28V18.96C150.165 18.656 150.237 18.424 150.381 18.264C150.525 18.088 150.741 18 151.029 18C151.301 18 151.509 18.088 151.653 18.264C151.813 18.424 151.893 18.656 151.893 18.96V20.376C152.485 19.592 153.197 19 154.029 18.6C154.877 18.2 155.805 18 156.813 18C158.333 18 159.501 18.424 160.317 19.272C161.149 20.12 161.565 21.336 161.565 22.92V29.28C161.565 29.584 161.485 29.824 161.325 30C161.165 30.16 160.949 30.24 160.677 30.24C160.389 30.24 160.173 30.16 160.029 30C159.885 29.824 159.813 29.584 159.813 29.28V22.92C159.813 20.648 158.741 19.512 156.597 19.512C155.189 19.512 154.053 19.928 153.189 20.76C152.341 21.592 151.917 22.696 151.917 24.072V29.28C151.917 29.568 151.837 29.8 151.677 29.976C151.533 30.152 151.317 30.24 151.029 30.24ZM170.645 30.24C169.365 30.24 168.237 29.992 167.261 29.496C166.285 28.984 165.533 28.264 165.005 27.336C164.477 26.408 164.213 25.328 164.213 24.096C164.213 22.88 164.477 21.816 165.005 20.904C165.533 19.976 166.285 19.264 167.261 18.768C168.237 18.256 169.365 18 170.645 18C171.845 18 172.885 18.168 173.765 18.504C174.645 18.84 175.341 19.336 175.853 19.992C175.981 20.168 176.045 20.336 176.045 20.496C176.045 20.736 175.925 20.952 175.685 21.144C175.573 21.24 175.429 21.288 175.253 21.288C174.981 21.288 174.725 21.168 174.485 20.928C173.637 19.984 172.357 19.512 170.645 19.512C169.157 19.512 168.005 19.912 167.189 20.712C166.389 21.496 165.989 22.624 165.989 24.096C165.989 25.552 166.397 26.688 167.213 27.504C168.029 28.32 169.173 28.728 170.645 28.728C171.461 28.728 172.213 28.608 172.901 28.368C173.589 28.112 174.157 27.752 174.605 27.288C174.877 27.016 175.133 26.88 175.373 26.88C175.517 26.88 175.677 26.944 175.853 27.072C176.077 27.264 176.189 27.472 176.189 27.696C176.189 27.904 176.101 28.08 175.925 28.224C175.141 28.928 174.325 29.44 173.477 29.76C172.629 30.08 171.685 30.24 170.645 30.24ZM184.802 30.24C182.722 30.24 181.114 29.704 179.978 28.632C178.842 27.56 178.274 26.04 178.274 24.072C178.274 22.184 178.85 20.704 180.002 19.632C181.154 18.544 182.73 18 184.73 18C185.962 18 187.058 18.2 188.018 18.6C188.978 18.984 189.722 19.536 190.25 20.256C190.794 20.96 191.066 21.768 191.066 22.68C191.066 23.352 190.874 23.872 190.49 24.24C190.122 24.608 189.61 24.792 188.954 24.792H180.074C180.074 26.024 180.49 26.992 181.322 27.696C182.154 28.384 183.314 28.728 184.802 28.728C185.714 28.728 186.498 28.632 187.154 28.44C187.81 28.232 188.426 27.904 189.002 27.456C189.306 27.2 189.554 27.072 189.746 27.072C189.89 27.072 190.026 27.136 190.154 27.264C190.378 27.456 190.49 27.656 190.49 27.864C190.49 28.024 190.394 28.2 190.202 28.392C189.546 29.016 188.778 29.48 187.898 29.784C187.018 30.088 185.986 30.24 184.802 30.24ZM188.426 23.376C188.714 23.376 188.93 23.32 189.074 23.208C189.218 23.08 189.29 22.856 189.29 22.536C189.29 21.96 189.098 21.44 188.714 20.976C188.33 20.512 187.786 20.152 187.082 19.896C186.394 19.64 185.61 19.512 184.73 19.512C183.306 19.512 182.178 19.864 181.346 20.568C180.53 21.256 180.122 22.192 180.122 23.376H188.426Z" fill="#858480"/>
<path d="M85.688 61.24C85.416 61.24 85.2 61.16 85.04 61C84.88 60.824 84.8 60.584 84.8 60.28V50.896C84.8 48.72 85.408 47.024 86.624 45.808C87.856 44.576 89.56 43.96 91.736 43.96C93.896 43.96 95.592 44.576 96.824 45.808C98.056 47.04 98.672 48.736 98.672 50.896V60.28C98.672 60.584 98.592 60.824 98.432 61C98.272 61.16 98.048 61.24 97.76 61.24C97.488 61.24 97.264 61.16 97.088 61C96.928 60.824 96.848 60.584 96.848 60.28V54.88H86.6V60.28C86.6 60.584 86.52 60.824 86.36 61C86.2 61.16 85.976 61.24 85.688 61.24ZM96.848 53.392V50.824C96.848 49.112 96.408 47.8 95.528 46.888C94.648 45.96 93.384 45.496 91.736 45.496C90.072 45.496 88.8 45.952 87.92 46.864C87.04 47.776 86.6 49.096 86.6 50.824V53.392H96.848ZM107.22 61.24C106.452 61.24 105.796 61.008 105.252 60.544C104.724 60.08 104.284 59.36 103.932 58.384L100.956 50.152C100.924 50.024 100.908 49.936 100.908 49.888C100.908 49.712 100.964 49.552 101.076 49.408C101.188 49.248 101.332 49.136 101.508 49.072C101.588 49.04 101.708 49.024 101.868 49.024C102.06 49.024 102.22 49.072 102.348 49.168C102.492 49.264 102.596 49.4 102.66 49.576L105.684 57.904C105.94 58.592 106.18 59.072 106.404 59.344C106.628 59.616 106.9 59.752 107.22 59.752C107.54 59.752 107.812 59.624 108.036 59.368C108.276 59.096 108.516 58.624 108.756 57.952L111.78 49.576C111.924 49.208 112.188 49.024 112.572 49.024C112.86 49.024 113.092 49.112 113.268 49.288C113.46 49.448 113.556 49.648 113.556 49.888C113.556 49.936 113.54 50.024 113.508 50.152L110.484 58.432C110.132 59.408 109.692 60.12 109.164 60.568C108.636 61.016 107.988 61.24 107.22 61.24ZM121.076 61.24C118.996 61.24 117.388 60.704 116.252 59.632C115.116 58.56 114.548 57.04 114.548 55.072C114.548 53.184 115.124 51.704 116.276 50.632C117.428 49.544 119.004 49 121.004 49C122.236 49 123.332 49.2 124.292 49.6C125.252 49.984 125.996 50.536 126.524 51.256C127.068 51.96 127.34 52.768 127.34 53.68C127.34 54.352 127.148 54.872 126.764 55.24C126.396 55.608 125.884 55.792 125.228 55.792H116.348C116.348 57.024 116.764 57.992 117.596 58.696C118.428 59.384 119.588 59.728 121.076 59.728C121.988 59.728 122.772 59.632 123.428 59.44C124.084 59.232 124.7 58.904 125.276 58.456C125.58 58.2 125.828 58.072 126.02 58.072C126.164 58.072 126.3 58.136 126.428 58.264C126.652 58.456 126.764 58.656 126.764 58.864C126.764 59.024 126.668 59.2 126.476 59.392C125.82 60.016 125.052 60.48 124.172 60.784C123.292 61.088 122.26 61.24 121.076 61.24ZM124.7 54.376C124.988 54.376 125.204 54.32 125.348 54.208C125.492 54.08 125.564 53.856 125.564 53.536C125.564 52.96 125.372 52.44 124.988 51.976C124.604 51.512 124.06 51.152 123.356 50.896C122.668 50.64 121.884 50.512 121.004 50.512C119.58 50.512 118.452 50.864 117.62 51.568C116.804 52.256 116.396 53.192 116.396 54.376H124.7ZM130.943 61.24C130.671 61.24 130.455 61.16 130.295 61C130.151 60.824 130.079 60.584 130.079 60.28V49.96C130.079 49.656 130.151 49.424 130.295 49.264C130.439 49.088 130.655 49 130.943 49C131.215 49 131.423 49.088 131.567 49.264C131.727 49.424 131.807 49.656 131.807 49.96V51.376C132.399 50.592 133.111 50 133.943 49.6C134.791 49.2 135.719 49 136.727 49C138.247 49 139.415 49.424 140.231 50.272C141.063 51.12 141.479 52.336 141.479 53.92V60.28C141.479 60.584 141.399 60.824 141.239 61C141.079 61.16 140.863 61.24 140.591 61.24C140.303 61.24 140.087 61.16 139.943 61C139.799 60.824 139.727 60.584 139.727 60.28V53.92C139.727 51.648 138.655 50.512 136.511 50.512C135.103 50.512 133.967 50.928 133.103 51.76C132.255 52.592 131.831 53.696 131.831 55.072V60.28C131.831 60.568 131.751 60.8 131.591 60.976C131.447 61.152 131.231 61.24 130.943 61.24ZM149.647 61.24C148.079 61.24 146.847 60.792 145.951 59.896C145.071 59 144.631 57.752 144.631 56.152V49.96C144.631 49.656 144.711 49.424 144.871 49.264C145.031 49.088 145.247 49 145.519 49C145.791 49 145.999 49.088 146.143 49.264C146.303 49.424 146.383 49.656 146.383 49.96V56.152C146.383 57.288 146.687 58.168 147.295 58.792C147.903 59.416 148.751 59.728 149.839 59.728C150.703 59.728 151.471 59.536 152.143 59.152C152.815 58.768 153.335 58.232 153.703 57.544C154.087 56.856 154.279 56.064 154.279 55.168V49.96C154.279 49.656 154.351 49.424 154.495 49.264C154.655 49.088 154.879 49 155.167 49C155.439 49 155.647 49.088 155.791 49.264C155.951 49.424 156.031 49.656 156.031 49.96V60.28C156.031 60.584 155.951 60.824 155.791 61C155.647 61.16 155.439 61.24 155.167 61.24C154.879 61.24 154.655 61.152 154.495 60.976C154.351 60.8 154.279 60.568 154.279 60.28V58.864C153.687 59.632 152.999 60.224 152.215 60.64C151.431 61.04 150.575 61.24 149.647 61.24ZM165.279 61.24C163.199 61.24 161.591 60.704 160.455 59.632C159.319 58.56 158.751 57.04 158.751 55.072C158.751 53.184 159.327 51.704 160.479 50.632C161.631 49.544 163.207 49 165.207 49C166.439 49 167.535 49.2 168.495 49.6C169.455 49.984 170.199 50.536 170.727 51.256C171.271 51.96 171.543 52.768 171.543 53.68C171.543 54.352 171.351 54.872 170.967 55.24C170.599 55.608 170.087 55.792 169.431 55.792H160.551C160.551 57.024 160.967 57.992 161.799 58.696C162.631 59.384 163.791 59.728 165.279 59.728C166.191 59.728 166.975 59.632 167.631 59.44C168.287 59.232 168.903 58.904 169.479 58.456C169.783 58.2 170.031 58.072 170.223 58.072C170.367 58.072 170.503 58.136 170.631 58.264C170.855 58.456 170.967 58.656 170.967 58.864C170.967 59.024 170.871 59.2 170.679 59.392C170.023 60.016 169.255 60.48 168.375 60.784C167.495 61.088 166.463 61.24 165.279 61.24ZM168.903 54.376C169.191 54.376 169.407 54.32 169.551 54.208C169.695 54.08 169.767 53.856 169.767 53.536C169.767 52.96 169.575 52.44 169.191 51.976C168.807 51.512 168.263 51.152 167.559 50.896C166.871 50.64 166.087 50.512 165.207 50.512C163.783 50.512 162.655 50.864 161.823 51.568C161.007 52.256 160.599 53.192 160.599 54.376H168.903Z" fill="#858480"/>
<path d="M71 0V81" stroke="#79776C"/>
<rect x="15.5025" y="12.4144" width="42.8407" height="42.8407" rx="3.5" transform="rotate(15 15.5025 12.4144)" stroke="#79776C"/>
<rect x="23.1596" y="9.73941" width="42.8407" height="42.8407" rx="3.5" transform="rotate(30 23.1596 9.73941)" stroke="#79776C"/>
<rect x="31" y="8.70711" width="42.8407" height="42.8407" rx="3.5" transform="rotate(45 31 8.70711)" stroke="#79776C"/>
<rect x="38.8404" y="9.73941" width="42.8407" height="42.8407" rx="3.5" transform="rotate(60 38.8404 9.73941)" stroke="#79776C"/>
<rect x="35.7745" y="13.6576" width="36.6341" height="36.6341" rx="3.5" transform="rotate(55.2958 35.7745 13.6576)" stroke="#79776C"/>
<rect x="43.6298" y="16.2447" width="36.6341" height="36.6341" rx="3.5" transform="rotate(75 43.6298 16.2447)" stroke="#79776C"/>
<rect x="52.5" y="17.5" width="43" height="43" rx="5.5" transform="rotate(90 52.5 17.5)" stroke="#79776C"/>
</svg>
