<svg width="49" height="48" viewBox="0 0 49 48" fill="none" xmlns="http://www.w3.org/2000/svg">
<path d="M24.5 47.8387C29.3456 47.8387 34.0824 46.4451 38.1115 43.8343C42.1405 41.2234 45.2807 37.5125 47.135 33.1707C48.9894 28.829 49.4746 24.0515 48.5292 19.4423C47.5839 14.8332 45.2505 10.5994 41.8241 7.27641C37.2294 2.82038 30.9978 0.317017 24.5 0.317017C18.0022 0.317017 11.7705 2.82038 7.17588 7.27641C2.58124 11.7324 0 17.7761 0 24.0779C0 30.3796 2.58124 36.4233 7.17588 40.8793C9.44562 43.0926 12.1455 44.8474 15.1192 46.0419C18.0928 47.2365 21.2813 47.8472 24.5 47.8387ZM24.5 3.48518C36.208 3.48518 45.7333 12.7231 45.7333 24.0779C45.7333 35.4327 36.208 44.6706 24.5 44.6706C12.792 44.6706 3.26671 35.4327 3.26671 24.0779C3.26671 12.7231 12.792 3.48518 24.5 3.48518Z" fill="#BAAE9D"/>
<path d="M27.4285 36.2863L29.7383 34.0463L19.46 24.0779L29.7383 14.1096L27.4285 11.8695L14.8403 24.0779L27.4285 36.2863Z" fill="#BAAE9D"/>
</svg>
